PathFileType	4	(X/Y/Z)	RBDS023static.trc
DataRate	CameraRate	NumFrames	NumMarkers	Units	OrigDataRate	OrigDataStartFrame	OrigNumFrames
150.000000	150.000000	4	48	mm	150.000000	131	150
Frame#	Time	L.Ankle			L.Ankle.Medial			L.ASIS			L.GTR			L.Heel.Bottom			L.Heel.Lateral			L.Heel.Top			L.HF			L.Iliac.Crest			L.Knee			L.Knee.Medial			L.MT1			L.MT2			L.MT5			L.PSIS			L.Shank.Bottom.Lateral			L.Shank.Bottom.Medial			L.Shank.Top.Lateral			L.Shank.Top.Medial			L.Thigh.Bottom.Lateral			L.Thigh.Bottom.Medial			L.Thigh.Top.Lateral			L.Thigh.Top.Medial			L.TT			R.Ankle			R.Ankle.Medial			R.ASIS			R.GTR			R.Heel.Bottom			R.Heel.Lateral			R.Heel.Top			R.HF			R.Iliac.Crest			R.Knee			R.Knee.Medial			R.MT1			R.MT2			R.MT5			R.PSIS			R.Shank.Bottom.Lateral			R.Shank.Bottom.Medial			R.Shank.Top.Lateral			R.Shank.Top.Medial			R.Thigh.Bottom.Lateral			R.Thigh.Bottom.Medial			R.Thigh.Top.Lateral			R.Thigh.Top.Medial			R.TT			
		X1	Y1	Z1	X2	Y2	Z2	X3	Y3	Z3	X4	Y4	Z4	X5	Y5	Z5	X6	Y6	Z6	X7	Y7	Z7	X8	Y8	Z8	X9	Y9	Z9	X10	Y10	Z10	X11	Y11	Z11	X12	Y12	Z12	X13	Y13	Z13	X14	Y14	Z14	X15	Y15	Z15	X16	Y16	Z16	X17	Y17	Z17	X18	Y18	Z18	X19	Y19	Z19	X20	Y20	Z20	X21	Y21	Z21	X22	Y22	Z22	X23	Y23	Z23	X24	Y24	Z24	X25	Y25	Z25	X26	Y26	Z26	X27	Y27	Z27	X28	Y28	Z28	X29	Y29	Z29	X30	Y30	Z30	X31	Y31	Z31	X32	Y32	Z32	X33	Y33	Z33	X34	Y34	Z34	X35	Y35	Z35	X36	Y36	Z36	X37	Y37	Z37	X38	Y38	Z38	X39	Y39	Z39	X40	Y40	Z40	X41	Y41	Z41	X42	Y42	Z42	X43	Y43	Z43	X44	Y44	Z44	X45	Y45	Z45	X46	Y46	Z46	X47	Y47	Z47	X48	Y48	Z48	

132	0.8733333333333334	708.8692626953125	102.7090835571289	1034.656616210938	735.0565795898438	122.0088043212891	1117.468139648438	832.9197387695313	1063.659790039063	1125.675903320313	768.1475830078125	977.0753173828125	1062.978881835938	639.4470825195313	41.34879684448242	1077.958618164063	668.782958984375	61.4768180847168	1039.5322265625	649.941162109375	87.68903350830078	1080.164794921875	713.2628784179688	481.5074462890625	1033.901733398438	751.4801635742188	1125.703002929688	1073.304443359375	725.7218017578125	553.1613159179688	1046.344360351563	717.1646728515625	529.2527465820313	1164.33544921875	860.695068359375	53.48821258544922	1126.319946289063	872.5015869140625	69.55451965332031	1082.882568359375	834.9410400390625	45.14077377319336	1010.447692871094	648.4423217773438	1079.975830078125	1173.811279296875	714.5457763671875	178.8507843017578	1030.429931640625	672.23974609375	171.5263671875	1058.272338867188	697.8358764648438	257.9930419921875	1019.494873046875	655.61328125	254.8527526855469	1050.597045898438	736.0392456054688	713.0770263671875	1031.46240234375	675.1288452148438	714.1764526367188	1069.41015625	735.5944213867188	823.3954467773438	1033.787353515625	680.3410034179688	824.3816528320313	1073.738403320313	772.3248901367188	462.8133239746094	1081.531127929688	698.6063842773438	105.114860534668	1420.076782226563	731.4280395507813	123.1548690795898	1339.956787109375	827.582275390625	1067.941162109375	1341.290161132813	748.2072143554688	970.478515625	1402.852416992188	632.3616333007813	40.78712463378906	1373.80712890625	662.1737670898438	58.56798553466797	1416.929321289063	642.590087890625	87.96248626708984	1373.414428710938	726.2722778320313	493.0027770996094	1416.474365234375	741.0992431640625	1139.883544921875	1379.995727539063	728.1619873046875	558.9463500976563	1409.785278320313	742.6670532226563	538.785888671875	1291.633911132813	854.3634033203125	53.79909133911133	1331.432373046875	863.0238037109375	70.99232482910156	1376.096923828125	829.0576171875	47.3952522277832	1447.175903320313	646.0079956054688	1086.237670898438	1282.521240234375	708.5478515625	185.7127838134766	1426.2998046875	662.3931274414063	184.9068145751953	1395.251831054688	698.4569091796875	265.7060546875	1437.292358398438	654.043701171875	264.2413940429688	1406.256103515625	717.0576782226563	681.4844970703125	1418.211059570313	667.980224609375	676.1236572265625	1363.537719726563	706.1104125976563	790.605224609375	1413.102661132813	661.4603271484375	785.6747436523438	1360.453735351563	780.0899047851563	464.7458190917969	1371.068481445313	
133	0.88	708.8787231445313	102.7124252319336	1034.66064453125	735.0549926757813	122.0131301879883	1117.467163085938	832.9419555664063	1063.652587890625	1125.679443359375	768.182861328125	977.0659790039063	1062.973510742188	639.4413452148438	41.35075759887695	1077.962768554688	668.7843017578125	61.48513031005859	1039.517700195313	649.9389038085938	87.69891357421875	1080.160522460938	713.2705078125	481.515869140625	1033.898071289063	751.5322265625	1125.696899414063	1073.299682617188	725.7544555664063	553.158935546875	1046.331909179688	717.1647338867188	529.2555541992188	1164.341918945313	860.6959228515625	53.4844856262207	1126.32080078125	872.5003051757813	69.54914855957031	1082.891357421875	834.9556274414063	45.14339447021484	1010.453430175781	648.4664306640625	1079.980224609375	1173.795654296875	714.5565795898438	178.8502044677734	1030.434204101563	672.2432250976563	171.5210418701172	1058.272094726563	697.8456420898438	257.9963073730469	1019.492553710938	655.6181640625	254.8557434082031	1050.592895507813	736.0565795898438	713.0623779296875	1031.461791992188	675.1495971679688	714.1790161132813	1069.405029296875	735.6184692382813	823.3949584960938	1033.7861328125	680.3637084960938	824.3921508789063	1073.73828125	772.3380126953125	462.8114318847656	1081.531982421875	698.611083984375	105.1177139282227	1420.0693359375	731.4248657226563	123.1631927490234	1339.957641601563	827.5975341796875	1067.938598632813	1341.292114257813	748.2127075195313	970.4783935546875	1402.83642578125	632.3613891601563	40.78576278686523	1373.804809570313	662.1755981445313	58.56466293334961	1416.92333984375	642.5942993164063	87.96424865722656	1373.413696289063	726.2703857421875	493.01220703125	1416.472900390625	741.103515625	1139.889526367188	1379.997192382813	728.15087890625	558.9465942382813	1409.778198242188	742.6754150390625	538.7949829101563	1291.630981445313	854.3677368164063	53.79621887207031	1331.439208984375	863.0338134765625	70.99512481689453	1376.097900390625	829.0640258789063	47.39389419555664	1447.168212890625	646.02490234375	1086.23681640625	1282.505615234375	708.5476684570313	185.7103881835938	1426.296752929688	662.3897094726563	184.9103851318359	1395.24462890625	698.4602661132813	265.7061462402344	1437.290283203125	654.0418701171875	264.2417297363281	1406.2451171875	717.0540161132813	681.4920654296875	1418.213134765625	667.9815063476563	676.1255493164063	1363.529907226563	706.1174926757813	790.60205078125	1413.098266601563	661.4677734375	785.6762084960938	1360.447265625	780.090087890625	464.7395629882813	1371.08447265625	
134	0.8866666666666667	708.87841796875	102.7088317871094	1034.659545898438	735.05615234375	122.011474609375	1117.468017578125	832.9759521484375	1063.637451171875	1125.68896484375	768.2117919921875	977.07177734375	1062.966918945313	639.4381713867188	41.35089111328125	1077.960327148438	668.787353515625	61.47892761230469	1039.523193359375	649.9381103515625	87.69564056396484	1080.16259765625	713.2747802734375	481.5180969238281	1033.890747070313	751.58056640625	1125.695434570313	1073.287109375	725.7542114257813	553.1674194335938	1046.338134765625	717.175048828125	529.2471923828125	1164.333862304688	860.7057495117188	53.4745979309082	1126.3271484375	872.50927734375	69.55294799804688	1082.886840820313	834.9566650390625	45.13625717163086	1010.448669433594	648.4889526367188	1079.9833984375	1173.77880859375	714.55908203125	178.8431549072266	1030.432495117188	672.2442016601563	171.5257263183594	1058.26416015625	697.8450927734375	257.9942016601563	1019.486145019531	655.6277465820313	254.8540344238281	1050.587646484375	736.0709838867188	713.0704956054688	1031.458618164063	675.1663208007813	714.1813354492188	1069.39794921875	735.6504516601563	823.3943481445313	1033.786499023438	680.392578125	824.3956909179688	1073.734252929688	772.3653564453125	462.824462890625	1081.539672851563	698.6102905273438	105.1129455566406	1420.074951171875	731.4260864257813	123.1629943847656	1339.9599609375	827.6098022460938	1067.932495117188	1341.292724609375	748.223876953125	970.4857177734375	1402.837646484375	632.3692626953125	40.77566146850586	1373.810180664063	662.1761474609375	58.57014846801758	1416.925170898438	642.5985107421875	87.96331787109375	1373.412719726563	726.2782592773438	493.0090637207031	1416.466430664063	741.1098022460938	1139.880981445313	1379.977905273438	728.1555786132813	558.9470825195313	1409.772705078125	742.6817626953125	538.794189453125	1291.625	854.365966796875	53.78738403320313	1331.447998046875	863.0267333984375	70.99795532226563	1376.102294921875	829.0557250976563	47.39510726928711	1447.177978515625	646.0452270507813	1086.244140625	1282.495361328125	708.5457153320313	185.7111511230469	1426.290893554688	662.3972778320313	184.9017181396484	1395.239135742188	698.4585571289063	265.6884155273438	1437.287475585938	654.0435180664063	264.240234375	1406.239013671875	717.0658569335938	681.4866943359375	1418.20458984375	667.984619140625	676.1260375976563	1363.527587890625	706.1160278320313	790.6134033203125	1413.094360351563	661.4732055664063	785.6854858398438	1360.434692382813	780.0860595703125	464.7316284179688	1371.079467773438	
135	0.8933333333333334	708.879150390625	102.7107543945313	1034.661987304688	735.0615234375	122.0062942504883	1117.464233398438	833.000244140625	1063.641479492188	1125.682739257813	768.2593383789063	977.0623779296875	1062.961303710938	639.4395141601563	41.34580612182617	1077.953247070313	668.7801513671875	61.48082733154297	1039.514526367188	649.9385375976563	87.69564056396484	1080.166870117188	713.3012084960938	481.514404296875	1033.89111328125	751.642333984375	1125.710571289063	1073.283081054688	725.7549438476563	553.156982421875	1046.335327148438	717.174560546875	529.25439453125	1164.3349609375	860.7029418945313	53.4764289855957	1126.330932617188	872.5091552734375	69.54701232910156	1082.886474609375	834.9454345703125	45.13717651367188	1010.441467285156	648.5156860351563	1079.9912109375	1173.764770507813	714.5617065429688	178.8466186523438	1030.4326171875	672.2401123046875	171.5233306884766	1058.266967773438	697.8440551757813	257.9913635253906	1019.4931640625	655.6239624023438	254.8572235107422	1050.585205078125	736.1005249023438	713.0799560546875	1031.4443359375	675.1800537109375	714.1810913085938	1069.382568359375	735.6782836914063	823.3882446289063	1033.779907226563	680.4188232421875	824.3877563476563	1073.719360351563	772.3634033203125	462.8013000488281	1081.537719726563	698.6099243164063	105.1090774536133	1420.068359375	731.4381103515625	123.1650848388672	1339.943359375	827.6259765625	1067.93408203125	1341.295654296875	748.2327880859375	970.4774169921875	1402.841186523438	632.3643188476563	40.78327560424805	1373.8095703125	662.1826782226563	58.56068801879883	1416.926879882813	642.5944213867188	87.96458435058594	1373.410400390625	726.2752075195313	493.0052490234375	1416.462158203125	741.1184692382813	1139.849365234375	1379.969604492188	728.1612548828125	558.9390869140625	1409.769165039063	742.6859130859375	538.7884521484375	1291.6298828125	854.3674926757813	53.79211807250977	1331.441162109375	863.0313110351563	70.99223327636719	1376.102783203125	829.0625610351563	47.39060211181641	1447.176391601563	646.065185546875	1086.242309570313	1282.49072265625	708.5519409179688	185.7085571289063	1426.2939453125	662.38916015625	184.9076385498047	1395.23974609375	698.4551391601563	265.7017822265625	1437.28662109375	654.0448608398438	264.2393188476563	1406.23876953125	717.0635986328125	681.485107421875	1418.20166015625	667.9945068359375	676.1318359375	1363.516967773438	706.124755859375	790.6043090820313	1413.089477539063	661.4838256835938	785.6783447265625	1360.423706054688	780.0891723632813	464.737060546875	1371.0771484375	
